<svg width="19" height="19" viewBox="0 0 19 19" fill="none" xmlns="http://www.w3.org/2000/svg">
<path d="M14.7071 10.2932C14.6143 10.2003 14.5041 10.1265 14.3828 10.0762C14.2615 10.0259 14.1314 10 14.0001 10C13.8688 10 13.7387 10.0259 13.6174 10.0762C13.4961 10.1265 13.3859 10.2003 13.2931 10.2932L11.6991 11.8872C10.9601 11.6672 9.58109 11.1672 8.70709 10.2932C7.83309 9.4192 7.33309 8.0402 7.11309 7.3012L8.70709 5.7072C8.80004 5.61441 8.87377 5.50421 8.92408 5.38289C8.97439 5.26158 9.00029 5.13153 9.00029 5.0002C9.00029 4.86887 8.97439 4.73882 8.92408 4.61751C8.87377 4.49619 8.80004 4.38599 8.70709 4.2932L4.70709 0.293201C4.6143 0.200255 4.5041 0.126518 4.38278 0.0762068C4.26147 0.0258961 4.13142 0 4.00009 0C3.86876 0 3.73871 0.0258961 3.6174 0.0762068C3.49608 0.126518 3.38588 0.200255 3.29309 0.293201L0.58109 3.0052C0.20109 3.3852 -0.0129104 3.9072 -0.00491041 4.4402C0.0180896 5.8642 0.39509 10.8102 4.29309 14.7082C8.19109 18.6062 13.1371 18.9822 14.5621 19.0062H14.5901C15.1181 19.0062 15.6171 18.7982 15.9951 18.4202L18.7071 15.7082C18.8 15.6154 18.8738 15.5052 18.9241 15.3839C18.9744 15.2626 19.0003 15.1325 19.0003 15.0012C19.0003 14.8699 18.9744 14.7398 18.9241 14.6185C18.8738 14.4972 18.8 14.387 18.7071 14.2942L14.7071 10.2932ZM14.5801 17.0052C13.3321 16.9842 9.06209 16.6492 5.70709 13.2932C2.34109 9.9272 2.01509 5.6422 1.99509 4.4192L4.00009 2.4142L6.58609 5.0002L5.29309 6.2932C5.17555 6.41065 5.08913 6.55554 5.04164 6.71477C4.99415 6.874 4.98709 7.04256 5.02109 7.2052C5.04509 7.3202 5.63209 10.0472 7.29209 11.7072C8.95209 13.3672 11.6791 13.9542 11.7941 13.9782C11.9566 14.0132 12.1254 14.0067 12.2847 13.9593C12.4441 13.9119 12.589 13.8252 12.7061 13.7072L14.0001 12.4142L16.5861 15.0002L14.5801 17.0052Z" fill="#111111"/>
</svg>
